<?xml version="1.0" standalone="no"?>
<!DOCTYPE svg PUBLIC "-//W3C//DTD SVG 20010904//EN"
 "http://www.w3.org/TR/2001/REC-SVG-20010904/DTD/svg10.dtd">
<svg version="1.0" xmlns="http://www.w3.org/2000/svg"
 width="1000.000000pt" height="562.000000pt" viewBox="0 0 1000.000000 562.000000"
 preserveAspectRatio="xMidYMid meet">

<g transform="translate(0.000000,562.000000) scale(0.100000,-0.100000)"
fill="#000000" stroke="none">
<path d="M9193 4930 c-13 -5 -23 -15 -23 -21 0 -9 4 -8 14 0 8 7 37 11 65 10
28 -2 54 0 58 4 3 4 -3 7 -14 7 -11 0 -33 2 -49 5 -16 2 -39 0 -51 -5z"/>
<path d="M9294 4899 c-4 -7 -3 -9 4 -5 5 3 41 -1 79 -10 79 -19 209 -26 194
-11 -6 6 -32 10 -58 10 -36 -1 -43 2 -28 8 13 6 5 7 -25 3 -25 -3 -40 -2 -34
3 7 4 -18 9 -56 11 -44 1 -71 -2 -76 -9z"/>
<path d="M6115 4891 c-3 -6 0 -11 8 -11 8 0 20 -6 26 -14 9 -11 6 -18 -16 -34
-15 -11 -25 -24 -20 -28 12 -12 68 48 65 71 -3 22 -51 34 -63 16z"/>
<path d="M9281 4872 c-1 -7 6 -23 14 -36 l16 -24 -48 9 c-26 5 -57 12 -68 15
-15 3 -13 1 5 -10 62 -35 344 -65 378 -40 14 10 12 11 -11 7 -29 -6 -130 10
-213 33 -34 9 -54 21 -62 36 -6 13 -11 17 -11 10z"/>
<path d="M6101 4857 c-9 -12 -7 -14 9 -13 11 0 21 5 21 11 1 16 -17 17 -30 2z"/>
<path d="M6216 4773 c12 -10 24 -25 27 -33 4 -8 5 -1 4 15 -2 24 -7 31 -27 33
l-25 3 21 -18z"/>
<path d="M6185 4749 c-4 -6 -5 -12 -2 -15 7 -7 37 7 37 17 0 13 -27 11 -35 -2z"/>
<path d="M6200 4710 c-12 -12 -19 -24 -16 -28 4 -3 16 5 27 17 27 29 17 39
-11 11z"/>
<path d="M6265 4670 c-3 -6 -3 -10 2 -9 22 4 34 -3 43 -23 9 -21 9 -20 7 7 -1
22 -8 31 -24 33 -11 2 -24 -2 -28 -8z"/>
<path d="M6255 4639 c-4 -6 -5 -13 -2 -16 8 -7 47 7 47 18 0 13 -37 11 -45 -2z"/>
<path d="M6270 4600 c-12 -12 -19 -24 -16 -28 4 -3 16 4 28 16 12 12 19 24 16
28 -4 3 -16 -4 -28 -16z"/>
<path d="M6341 4561 c-11 -7 -9 -10 9 -13 16 -2 27 -12 31 -28 7 -23 7 -23 8
6 1 21 -5 34 -15 38 -19 7 -16 8 -33 -3z"/>
<path d="M6320 4520 c-9 -18 -8 -18 20 -9 16 6 27 15 24 20 -9 15 -33 10 -44
-11z"/>
<path d="M6335 4480 c-14 -15 -15 -20 -4 -20 8 0 20 9 27 20 7 11 8 20 4 20
-5 0 -17 -9 -27 -20z"/>
<path d="M6412 4451 c-10 -6 -7 -10 11 -15 14 -3 28 -14 30 -24 3 -11 5 -7 6
9 1 16 -5 29 -15 33 -19 7 -16 8 -32 -3z"/>
<path d="M6394 4413 c-10 -10 -12 -19 -6 -21 16 -5 53 18 47 29 -9 13 -21 11
-41 -8z"/>
<path d="M6412 4378 c-14 -14 -16 -42 -2 -33 14 9 32 45 22 45 -4 0 -13 -5
-20 -12z"/>
<path d="M6488 4330 c12 -5 27 -20 32 -32 8 -21 9 -20 9 10 1 30 -1 32 -31 31
-30 0 -31 -1 -10 -9z"/>
<path d="M6465 4299 c-4 -6 -5 -12 -2 -15 7 -7 37 7 37 17 0 13 -27 11 -35 -2z"/>
<path d="M6487 4266 c-9 -7 -17 -19 -17 -27 0 -9 8 -6 22 9 25 24 22 37 -5 18z"/>
<path d="M6544 4218 c-4 -7 -4 -10 1 -6 12 11 45 -11 45 -30 1 -15 2 -15 11 1
6 10 8 25 5 33 -7 17 -52 19 -62 2z"/>
<path d="M6531 4186 c-9 -11 -7 -13 11 -11 36 4 38 4 38 15 0 15 -36 12 -49
-4z"/>
<path d="M8669 4063 c-19 -67 -28 -117 -23 -122 16 -15 727 -212 735 -204 15
17 70 216 62 224 -5 5 -131 43 -279 84 -148 42 -312 88 -366 104 l-96 28 -33
-114z"/>
<path d="M6555 4150 c-10 -11 -15 -23 -12 -27 7 -6 36 25 37 40 0 11 -6 8 -25
-13z"/>
<path d="M6630 4111 c0 -5 7 -11 15 -15 8 -3 15 -12 15 -21 0 -8 5 -15 10 -15
14 0 13 33 -2 48 -14 14 -38 16 -38 3z"/>
<path d="M6605 4081 c-3 -5 -1 -12 4 -15 12 -8 41 3 41 15 0 12 -37 12 -45 0z"/>
<path d="M6621 4041 c-13 -10 -19 -21 -14 -24 6 -4 20 2 32 12 38 33 23 43
-18 12z"/>
<path d="M9545 4022 c-6 -4 -12 -20 -14 -37 -1 -16 -6 -34 -11 -40 -7 -9 -15
-43 -27 -110 -3 -16 -9 -38 -14 -47 -5 -10 -5 -19 0 -22 5 -3 11 4 14 17 3 12
19 68 37 125 31 102 34 128 15 114z"/>
<path d="M6699 3999 c-11 -7 -11 -9 4 -9 11 0 21 -9 24 -20 7 -26 23 -26 23 0
0 24 -31 42 -51 29z"/>
<path d="M6670 3960 c-9 -18 -8 -18 20 -9 34 12 40 29 10 29 -10 0 -24 -9 -30
-20z"/>
<path d="M6695 3930 c-24 -27 -16 -33 14 -11 13 10 19 21 14 24 -6 4 -18 -2
-28 -13z"/>
<path d="M6141 3924 c0 -11 3 -14 6 -6 3 7 2 16 -1 19 -3 4 -6 -2 -5 -13z"/>
<path d="M6775 3881 c11 -4 22 -19 26 -32 5 -21 7 -22 14 -6 12 27 -2 47 -32
46 -24 0 -25 -2 -8 -8z"/>
<path d="M6749 3854 c-11 -14 -10 -16 9 -12 13 1 23 7 23 13 1 17 -17 16 -32
-1z"/>
<path d="M6763 3815 c-19 -21 -16 -27 7 -15 11 6 20 15 20 20 0 14 -13 12 -27
-5z"/>
<path d="M6838 3775 c-6 -6 37 -55 48 -55 3 0 4 12 2 28 -3 26 -34 43 -50 27z"/>
<path d="M8630 3773 c0 -4 5 -15 10 -23 8 -13 10 -13 10 2 0 9 -4 20 -10 23
-5 3 -10 3 -10 -2z"/>
<path d="M8660 3750 c0 -11 4 -20 9 -20 5 0 7 9 4 20 -3 11 -7 20 -9 20 -2 0
-4 -9 -4 -20z"/>
<path d="M9463 3743 c3 -13 2 -23 -3 -23 -8 0 -51 -140 -53 -172 -1 -9 -6 -16
-12 -15 -5 1 -9 -4 -7 -11 3 -18 -16 -99 -35 -140 -9 -21 -16 -40 -15 -44 1
-3 -11 -50 -27 -102 -16 -53 -27 -96 -24 -96 3 0 1 -6 -5 -12 -5 -7 -13 -29
-17 -48 -4 -19 -11 -39 -15 -45 -5 -5 -10 -24 -13 -42 -3 -17 -8 -36 -11 -41
-3 -5 -6 -25 -8 -45 -1 -21 -6 -37 -11 -37 -4 0 -6 -4 -2 -9 3 -5 0 -13 -6
-16 -5 -4 -8 -13 -5 -21 3 -7 1 -16 -5 -19 -5 -4 -7 -11 -3 -16 3 -5 0 -17 -7
-25 -12 -15 -25 -103 -13 -91 7 7 59 178 134 446 23 79 57 196 77 260 20 64
42 145 50 181 8 35 18 69 22 75 4 5 13 32 20 59 9 38 9 51 0 60 -9 8 -10 6 -6
-11z"/>
<path d="M8786 3742 c-3 -5 1 -9 9 -9 8 0 12 4 9 9 -3 4 -7 8 -9 8 -2 0 -6 -4
-9 -8z"/>
<path d="M6134 3728 c-5 -7 -10 -22 -11 -33 -2 -11 -8 -42 -13 -70 -11 -55
-12 -63 -35 -215 -9 -58 -25 -152 -35 -210 -11 -58 -35 -197 -55 -310 -46
-267 -43 -248 -66 -380 -11 -63 -40 -221 -64 -350 -24 -129 -62 -333 -84 -453
-23 -121 -44 -229 -47 -242 -5 -20 10 -44 21 -33 2 2 29 138 60 303 30 165 66
359 80 430 13 72 49 267 79 435 180 1003 209 1191 170 1128z"/>
<path d="M6805 3730 c-4 -6 5 -10 19 -10 14 0 26 5 26 10 0 6 -9 10 -19 10
-11 0 -23 -4 -26 -10z"/>
<path d="M8680 3718 c-16 -13 -34 -18 -54 -15 -26 4 -27 3 -11 -10 28 -20 72
-16 85 8 17 31 8 40 -20 17z"/>
<path d="M8820 3733 c0 -6 -3 -18 -6 -27 -3 -9 -1 -16 6 -16 6 0 9 4 6 9 -4 5
-2 11 4 13 6 2 6 8 0 18 -6 9 -10 10 -10 3z"/>
<path d="M8777 3709 c7 -7 15 -10 18 -7 3 3 -2 9 -12 12 -14 6 -15 5 -6 -5z"/>
<path d="M6830 3695 c-20 -24 -6 -28 15 -5 10 11 13 20 8 20 -6 0 -16 -7 -23
-15z"/>
<path d="M8768 3662 c35 -33 95 -28 101 8 3 24 2 24 -16 7 -23 -20 -69 -22
-93 -4 -9 6 -5 2 8 -11z"/>
<path d="M8957 3676 c-11 -8 -14 -17 -8 -20 5 -4 13 -1 16 5 4 6 17 14 29 19
20 8 20 9 1 9 -11 0 -28 -6 -38 -13z"/>
<path d="M9136 3634 c1 -6 -1 -15 -4 -20 -4 -5 -5 -8 -3 -7 2 2 10 -2 18 -9
18 -14 29 -3 15 15 -7 8 -8 18 -4 22 4 5 2 5 -5 2 -6 -4 -13 -4 -16 0 -2 5 -3
3 -1 -3z"/>
<path d="M520 3630 c0 -5 5 -10 11 -10 5 0 7 5 4 10 -3 6 -8 10 -11 10 -2 0
-4 -4 -4 -10z"/>
<path d="M8568 3619 c-5 -26 0 -29 50 -29 12 0 22 -5 22 -10 0 -6 8 -10 18 -9
10 0 12 3 5 6 -7 2 -13 12 -13 20 0 10 6 13 16 9 9 -3 12 -2 9 5 -4 6 -13 8
-21 5 -8 -3 -14 -2 -14 3 0 17 -41 20 -47 3 -6 -13 -7 -13 -13 3 -6 17 -7 16
-12 -6z"/>
<path d="M9015 3624 c-12 -9 -34 -14 -53 -12 l-33 4 23 -18 c24 -18 53 -16 77
7 21 20 9 36 -14 19z"/>
<path d="M9182 3581 c-17 -17 -31 -22 -52 -19 -24 4 -27 2 -19 -9 20 -23 74
-16 88 11 19 35 10 45 -17 17z"/>
<path d="M9290 3591 c0 -6 5 -11 10 -11 6 0 9 -5 8 -11 -2 -6 3 -13 10 -14 7
-2 8 -1 2 2 -7 3 -7 10 2 21 7 10 8 14 4 10 -5 -4 -15 -3 -23 3 -9 9 -13 8
-13 0z"/>
<path d="M7577 3548 c-49 -16 -87 -32 -85 -33 8 -8 188 49 188 60 0 8 -9 6
-103 -27z"/>
<path d="M8780 3560 c0 -23 35 -46 45 -30 4 6 16 8 28 5 21 -5 21 -5 0 6 -13
7 -23 16 -23 22 0 5 -7 4 -15 -3 -12 -10 -15 -10 -15 4 0 9 -4 16 -10 16 -5 0
-10 -9 -10 -20z"/>
<path d="M8685 3553 c-20 -15 -78 -14 -120 2 -14 6 -17 5 -10 -3 6 -6 30 -17
54 -26 48 -16 84 -9 95 20 9 23 4 25 -19 7z"/>
<path d="M9355 3540 c-11 -12 -32 -20 -54 -21 -20 -1 -28 -3 -18 -6 9 -2 17
-9 17 -14 0 -16 36 -10 52 9 14 16 31 52 24 52 -1 0 -11 -9 -21 -20z"/>
<path d="M7452 3482 c-51 -21 -99 -45 -108 -54 -9 -8 10 -3 43 13 32 15 96 39
143 53 65 19 77 25 50 25 -19 0 -77 -17 -128 -37z"/>
<path d="M8987 3498 c-4 -12 -4 -24 -2 -27 3 -2 5 1 5 8 0 8 6 7 16 -4 14 -13
19 -14 26 -3 7 10 11 10 14 1 7 -17 34 -4 27 13 -3 8 -10 11 -15 8 -6 -4 -14
0 -19 7 -8 12 -11 12 -19 -1 -8 -13 -10 -12 -10 3 0 24 -17 21 -23 -5z"/>
<path d="M7450 3500 c-8 -5 -10 -10 -5 -10 6 0 17 5 25 10 8 5 11 10 5 10 -5
0 -17 -5 -25 -10z"/>
<path d="M8750 3504 c0 -9 87 -44 110 -44 28 0 50 16 50 38 0 10 -4 10 -22 -2
-27 -19 -51 -19 -100 -2 -21 8 -38 12 -38 10z"/>
<path d="M8555 3490 c3 -5 13 -10 22 -10 13 0 12 -5 -7 -25 -34 -36 -19 -41
19 -6 l31 29 -31 11 c-39 13 -42 14 -34 1z"/>
<path d="M9159 3483 c-13 -16 -12 -17 4 -4 16 13 21 21 13 21 -2 0 -10 -8 -17
-17z"/>
<path d="M7675 3465 c-29 -14 -52 -20 -55 -14 -8 11 -148 -44 -164 -65 -6 -8
-27 -19 -46 -24 -19 -6 -27 -11 -18 -11 34 -2 338 119 338 134 0 6 4 8 -55
-20z"/>
<path d="M9240 3450 c0 -5 5 -10 10 -10 6 0 10 5 10 10 0 6 -4 10 -10 10 -5 0
-10 -4 -10 -10z"/>
<path d="M9095 3434 c-19 -15 -64 -14 -112 2 -13 5 -12 2 5 -11 51 -38 110
-36 132 4 13 25 3 26 -25 5z"/>
<path d="M8761 3427 c-6 -8 -8 -17 -4 -20 3 -4 1 -7 -5 -7 -19 0 -14 -28 7
-40 27 -14 48 -3 54 28 8 39 -29 66 -52 39z m39 -11 c0 -11 -19 -15 -25 -6 -3
5 1 10 9 10 9 0 16 -2 16 -4z m-10 -36 c0 -5 -7 -10 -15 -10 -8 0 -15 5 -15
10 0 6 7 10 15 10 8 0 15 -4 15 -10z"/>
<path d="M9225 3425 c17 -8 39 -14 50 -14 15 1 13 4 -10 14 -16 8 -39 14 -50
14 -15 -1 -13 -4 10 -14z"/>
<path d="M8640 3405 c-14 -17 -50 -19 -100 -5 l-35 9 23 -19 c49 -40 132 -34
132 10 0 24 -4 25 -20 5z"/>
<path d="M9230 3400 c0 -5 5 -10 10 -10 6 0 10 5 10 10 0 6 -4 10 -10 10 -5 0
-10 -4 -10 -10z"/>
<path d="M9302 3372 c-19 -13 -33 -14 -72 -6 -27 6 -46 6 -43 2 8 -13 54 -30
89 -33 26 -2 34 2 43 22 15 32 12 35 -17 15z"/>
<path d="M8973 3373 c-19 -7 -16 -33 5 -50 15 -13 15 -14 -8 -8 -24 6 -24 5
-6 -9 25 -20 56 -4 56 29 0 25 -26 46 -47 38z m28 -26 c-1 -12 -15 -9 -19 4
-3 6 1 10 8 8 6 -3 11 -8 11 -12z"/>
<path d="M8706 3349 c11 -19 85 -49 112 -47 32 2 45 14 50 42 3 17 2 17 -20 2
-27 -19 -60 -20 -110 -2 -21 8 -35 10 -32 5z"/>
<path d="M8517 3322 c-32 -20 -34 -28 -7 -37 11 -4 18 -11 15 -16 -7 -11 6
-12 20 -1 10 7 14 56 5 65 -3 3 -18 -2 -33 -11z m18 -21 c-3 -6 -11 -8 -17 -5
-6 4 -5 9 3 15 16 10 23 4 14 -10z"/>
<path d="M9174 3296 c4 -12 0 -23 -11 -32 -16 -13 -15 -14 10 -8 17 4 27 2 27
-5 0 -6 5 -11 11 -11 6 0 9 7 5 15 -3 8 2 19 12 24 14 9 13 10 -8 11 -15 0
-32 6 -39 13 -12 10 -13 9 -7 -7z"/>
<path d="M8924 3281 c21 -23 96 -45 124 -37 19 6 37 34 28 43 -2 3 -13 0 -24
-6 -29 -15 -66 -14 -109 4 -36 15 -36 15 -19 -4z"/>
<path d="M8713 3273 c-4 -9 1 -19 10 -25 24 -13 21 -31 -3 -23 -23 7 -28 -10
-5 -19 39 -15 63 32 28 54 -15 9 -14 10 6 4 14 -4 21 -2 17 4 -11 18 -47 21
-53 5z"/>
<path d="M8480 3240 c50 -38 129 -34 138 8 3 16 -3 15 -38 -3 -25 -13 -34 -13
-77 0 l-48 14 25 -19z"/>
<path d="M9130 3220 c0 -11 52 -33 89 -38 25 -3 39 1 48 14 20 27 16 33 -16
21 -21 -8 -43 -8 -75 0 -25 6 -46 7 -46 3z"/>
<path d="M8914 3206 c-11 -29 0 -61 24 -64 30 -4 42 26 17 44 -10 8 -16 17
-12 20 4 4 14 1 23 -7 15 -12 17 -12 12 1 -6 21 -56 26 -64 6z m36 -36 c0 -5
-7 -10 -16 -10 -8 0 -12 5 -9 10 3 6 10 10 16 10 5 0 9 -4 9 -10z"/>
<path d="M8800 3195 c-11 -13 -24 -16 -60 -12 -25 2 -54 8 -65 13 -18 7 -18 6
-5 -7 21 -20 66 -39 94 -39 31 0 59 23 55 45 -4 17 -5 17 -19 0z"/>
<path d="M8477 3168 c4 -7 6 -24 4 -38 -4 -33 15 -15 24 23 6 23 4 27 -15 27
-14 0 -19 -4 -13 -12z"/>
<path d="M9009 3135 c-18 -18 -41 -21 -86 -11 -43 10 -44 -8 -2 -23 71 -25
116 -10 107 34 -3 15 -4 15 -19 0z"/>
<path d="M9110 3132 c0 -6 11 -13 24 -16 13 -3 31 -9 40 -12 9 -3 16 -1 16 4
0 6 -10 14 -22 17 -13 4 -31 9 -40 11 -10 3 -18 1 -18 -4z"/>
<path d="M8665 3121 c-3 -5 7 -11 22 -14 l28 -4 -32 -14 c-41 -17 -41 -24 -3
-38 18 -6 30 -6 30 0 0 5 -8 9 -17 9 -13 1 -10 5 10 16 30 16 33 24 15 42 -14
14 -44 16 -53 3z"/>
<path d="M8430 3093 c29 -27 98 -43 120 -30 9 5 17 18 17 28 2 18 0 18 -28 4
-24 -13 -37 -14 -72 -4 -23 6 -47 14 -52 17 -6 4 1 -3 15 -15z"/>
<path d="M130 3074 c0 -8 5 -12 10 -9 6 4 8 11 5 16 -9 14 -15 11 -15 -7z"/>
<path d="M9208 3067 c-27 -20 -30 -20 -80 -4 -52 16 -52 16 -31 -2 12 -10 19
-22 15 -26 -4 -4 4 -4 17 0 17 5 21 4 16 -5 -5 -8 -2 -11 11 -7 11 3 31 8 45
11 16 3 29 15 32 28 8 29 7 29 -25 5z"/>
<path d="M8874 3058 c-5 -8 -2 -9 9 -5 9 3 19 2 22 -3 4 -6 1 -10 -5 -10 -7 0
-9 -8 -5 -20 7 -21 -10 -29 -18 -7 -2 6 -8 9 -12 5 -12 -11 5 -28 29 -28 18 0
25 7 30 32 4 21 2 34 -6 40 -18 11 -36 10 -44 -4z"/>
<path d="M8748 3037 c-27 -20 -30 -20 -79 -5 -44 15 -49 15 -38 1 42 -49 159
-42 147 10 -2 12 -8 11 -30 -6z"/>
<path d="M9068 3043 c7 -3 16 -2 19 1 4 3 -2 6 -13 5 -11 0 -14 -3 -6 -6z"/>
<path d="M8412 3018 c-29 -29 3 -82 36 -61 25 15 22 67 -3 71 -11 1 -26 -3
-33 -10z m38 -23 c0 -16 -6 -25 -15 -25 -16 0 -19 9 -9 34 9 25 24 19 24 -9z"/>
<path d="M400 3010 c0 -5 5 -10 10 -10 6 0 10 5 10 10 0 6 -4 10 -10 10 -5 0
-10 -4 -10 -10z"/>
<path d="M8835 2973 c17 -17 33 -29 37 -27 4 3 9 1 12 -4 7 -12 64 -6 81 8 8
7 15 19 15 26 0 12 -5 11 -25 -2 -21 -14 -32 -15 -72 -4 -26 6 -55 16 -63 22
-8 7 -1 -2 15 -19z"/>
<path d="M8367 2945 c10 -13 20 -23 23 -22 3 0 24 -5 48 -12 35 -10 47 -10 60
1 40 31 36 58 -3 32 -27 -18 -71 -14 -118 10 l-27 15 17 -24z"/>
<path d="M8630 2935 c0 -8 7 -15 15 -15 8 0 15 7 15 15 0 8 -7 15 -15 15 -8 0
-15 -7 -15 -15z"/>
<path d="M9085 2933 c-4 -13 -16 -23 -26 -23 -22 0 -25 -15 -5 -23 9 -4 12
-15 8 -33 -3 -19 -1 -25 7 -20 6 4 11 14 11 22 0 8 9 14 20 14 11 0 20 5 20
10 0 6 -4 10 -9 10 -6 0 -12 15 -14 33 -4 29 -5 30 -12 10z"/>
<path d="M115 2910 c3 -5 8 -10 11 -10 2 0 4 5 4 10 0 6 -5 10 -11 10 -5 0 -7
-4 -4 -10z"/>
<path d="M8810 2902 c0 -12 71 -33 84 -25 5 4 -6 12 -25 19 -41 15 -59 17 -59
6z"/>
<path d="M8580 2880 c5 -9 29 -23 53 -30 39 -10 48 -10 71 5 14 10 26 24 26
32 0 12 -3 12 -22 -1 -27 -19 -51 -19 -100 -2 -34 12 -37 12 -28 -4z"/>
<path d="M8800 2872 c0 -5 17 -14 39 -20 46 -14 51 -15 51 -4 0 5 -17 14 -39
20 -46 14 -51 15 -51 4z"/>
<path d="M8776 2825 c6 -15 74 -45 102 -45 24 0 62 28 62 46 0 13 -3 13 -22 0
-28 -20 -54 -20 -106 -2 -34 12 -40 12 -36 1z"/>
<path d="M9140 2792 c0 -39 -64 -53 -127 -27 -36 15 -36 15 -18 -5 20 -23 73
-35 110 -26 24 6 53 52 40 64 -3 3 -5 0 -5 -6z"/>
<path d="M50 2676 c0 -3 9 -10 20 -16 11 -6 20 -8 20 -6 0 3 -9 10 -20 16 -11
6 -20 8 -20 6z"/>
<path d="M96 2646 c-19 -9 -24 -15 -15 -18 8 -3 20 1 27 9 8 7 18 10 24 7 7
-4 8 -2 4 4 -4 7 -8 12 -9 11 -1 0 -15 -6 -31 -13z"/>
<path d="M8033 2612 c-34 -60 -88 -115 -135 -139 -45 -23 -76 -34 -82 -30 -2
1 -13 -7 -25 -17 -12 -11 -21 -16 -21 -12 0 14 -60 -63 -66 -84 -1 -3 -5 -20
-9 -38 -4 -18 -11 -35 -15 -37 -4 -3 -33 6 -64 20 -31 14 -60 25 -63 25 -13 0
14 -21 48 -38 20 -10 36 -27 39 -42 5 -21 8 -22 16 -9 5 9 15 18 21 20 7 2 36
39 65 82 29 44 64 85 78 92 14 7 45 23 70 35 64 31 119 86 147 149 28 63 27
75 -4 23z"/>
<path d="M35 2600 c3 -5 8 -10 11 -10 2 0 4 5 4 10 0 6 -5 10 -11 10 -5 0 -7
-4 -4 -10z"/>
<path d="M6765 2558 c-16 -25 -21 -37 -11 -29 16 14 51 71 43 71 -3 0 -17 -19
-32 -42z"/>
<path d="M430 2549 c0 -5 5 -7 10 -4 6 3 10 8 10 11 0 2 -4 4 -10 4 -5 0 -10
-5 -10 -11z"/>
<path d="M10 2536 c0 -2 7 -9 15 -16 9 -7 15 -8 15 -2 0 5 -7 12 -15 16 -8 3
-15 4 -15 2z"/>
<path d="M6760 2515 c-12 -13 -26 -22 -31 -20 -4 3 -11 0 -15 -6 -5 -8 -3 -9
6 -4 8 5 11 3 8 -6 -3 -8 -10 -14 -15 -14 -6 0 -15 -4 -20 -9 -5 -6 -2 -6 6
-1 11 6 13 4 7 -11 -8 -21 -6 -19 48 49 40 51 44 62 6 22z"/>
<path d="M6801 2437 c-36 -67 -20 -76 22 -13 31 46 34 56 19 56 -10 0 -27 -17
-41 -43z"/>
<path d="M0 2460 c0 -5 4 -10 9 -10 6 0 13 5 16 10 3 6 -1 10 -9 10 -9 0 -16
-4 -16 -10z"/>
<path d="M36 2455 c-7 -20 9 -28 23 -11 9 10 8 15 -3 19 -8 3 -17 -1 -20 -8z"/>
<path d="M298 2453 c7 -3 16 -2 19 1 4 3 -2 6 -13 5 -11 0 -14 -3 -6 -6z"/>
<path d="M349 2449 c-10 -6 -7 -9 14 -9 29 0 35 5 14 13 -8 3 -20 1 -28 -4z"/>
<path d="M460 2447 c0 -9 4 -18 9 -21 5 -4 8 1 7 9 -3 21 -16 31 -16 12z"/>
<path d="M203 2424 c-16 -17 -16 -31 -1 -40 7 -4 8 -3 4 5 -4 6 -2 19 5 27 15
19 8 26 -8 8z"/>
<path d="M710 2430 c0 -6 7 -10 15 -10 8 0 15 2 15 4 0 2 -7 6 -15 10 -8 3
-15 1 -15 -4z"/>
<path d="M0 2412 c0 -4 9 -8 20 -9 11 -1 18 2 15 8 -7 11 -35 12 -35 1z"/>
<path d="M15 2380 c3 -5 11 -10 16 -10 6 0 7 5 4 10 -3 6 -11 10 -16 10 -6 0
-7 -4 -4 -10z"/>
<path d="M82 2366 c7 -8 17 -12 22 -9 4 3 2 9 -5 14 -22 13 -31 11 -17 -5z"/>
<path d="M304 2282 c4 -7 2 -19 -4 -27 -7 -9 -8 -15 -2 -15 16 0 24 32 11 44
-9 8 -10 8 -5 -2z"/>
<path d="M345 2270 c3 -5 11 -10 16 -10 6 0 7 5 4 10 -3 6 -11 10 -16 10 -6 0
-7 -4 -4 -10z"/>
<path d="M202 2261 c-11 -7 -10 -9 3 -14 9 -4 14 -3 10 2 -3 5 1 12 7 14 7 3
9 6 3 6 -5 0 -16 -3 -23 -8z"/>
<path d="M25 2250 c-4 -6 -10 -8 -14 -6 -4 3 -8 -1 -8 -9 0 -19 3 -19 27 5 11
11 16 20 11 20 -6 0 -13 -5 -16 -10z"/>
<path d="M125 2230 c3 -5 11 -10 16 -10 6 0 7 5 4 10 -3 6 -11 10 -16 10 -6 0
-7 -4 -4 -10z"/>
<path d="M305 2220 c3 -5 8 -10 11 -10 2 0 4 5 4 10 0 6 -5 10 -11 10 -5 0 -7
-4 -4 -10z"/>
<path d="M3 2195 c0 -8 4 -12 9 -9 5 3 6 10 3 15 -9 13 -12 11 -12 -6z"/>
<path d="M223 2204 c4 -7 0 -17 -8 -24 -12 -10 -15 -10 -16 1 0 8 -4 4 -9 -8
-11 -27 -42 -24 -55 5 -10 23 -32 24 -27 2 5 -22 -49 -70 -80 -70 -15 0 -28
-4 -28 -8 0 -17 65 -7 81 13 14 16 19 17 33 6 12 -10 19 -11 29 -2 8 6 18 7
22 3 5 -4 4 -1 0 7 -6 11 -4 13 9 8 10 -4 15 -3 11 3 -3 5 5 12 19 16 38 9 50
28 29 45 -9 8 -14 9 -10 3z m-78 -74 c-4 -6 -11 -8 -16 -4 -5 3 -7 10 -4 15 4
5 1 9 -5 9 -6 0 -8 5 -5 10 4 6 12 4 21 -5 9 -8 12 -19 9 -25z"/>
<path d="M470 2184 c0 -8 5 -12 10 -9 6 4 8 11 5 16 -9 14 -15 11 -15 -7z"/>
<path d="M70 2181 c0 -6 4 -13 10 -16 6 -3 7 1 4 9 -7 18 -14 21 -14 7z"/>
<path d="M150 2180 c0 -5 4 -10 9 -10 6 0 13 5 16 10 3 6 -1 10 -9 10 -9 0
-16 -4 -16 -10z"/>
<path d="M8520 2153 c-43 -62 -126 -115 -212 -132 -62 -13 -165 -2 -214 24
-16 8 -42 15 -57 15 -19 0 -26 4 -21 12 5 8 2 9 -10 5 -10 -4 -24 -7 -32 -7
-9 0 -13 -4 -9 -9 3 -5 -5 -13 -17 -16 -13 -4 -37 -18 -55 -31 l-32 -24 -25
55 c-22 49 -46 72 -46 45 0 -6 -33 -10 -80 -10 l-80 0 0 -54 c0 -72 -12 -102
-63 -153 -22 -24 -38 -43 -34 -43 12 0 111 72 129 94 9 11 20 18 23 14 4 -3
35 7 71 23 49 22 73 28 102 23 26 -4 51 1 85 15 57 25 113 26 181 6 145 -44
315 12 397 131 17 25 29 47 27 49 -2 2 -14 -12 -28 -32z m-795 -99 c1 -5 7
-19 14 -32 12 -22 11 -23 -7 -13 -11 6 -23 7 -27 3 -3 -4 -18 -7 -32 -7 -21
-1 -22 1 -9 10 8 7 13 20 10 31 -4 16 0 20 23 18 15 0 28 -5 28 -10z m-12 -56
c-6 -7 -9 -21 -8 -30 2 -10 -2 -21 -8 -25 -7 -3 -8 -2 -4 2 4 5 -3 15 -15 22
-13 7 -17 12 -10 13 7 0 10 4 7 10 -3 5 0 7 8 4 8 -3 18 -1 22 5 3 6 9 11 12
11 3 0 1 -6 -4 -12z"/>
<path d="M350 2169 c0 -5 5 -7 10 -4 6 3 10 8 10 11 0 2 -4 4 -10 4 -5 0 -10
-5 -10 -11z"/>
<path d="M513 2172 c3 -10 -39 -62 -50 -62 -5 0 -7 -14 -5 -31 l5 -32 17 23
c10 13 15 31 13 40 -2 9 3 22 11 29 13 11 17 10 24 -10 l9 -23 13 23 c11 21
10 23 -4 18 -11 -5 -16 -1 -16 13 0 11 -4 20 -10 20 -5 0 -9 -3 -7 -8z"/>
<path d="M5 2161 c-3 -5 -1 -12 4 -15 5 -3 11 1 15 9 6 16 -9 21 -19 6z"/>
<path d="M35 2149 c-4 -6 -3 -15 3 -21 6 -6 11 -4 15 6 7 18 -9 31 -18 15z"/>
<path d="M400 2139 c0 -11 5 -17 10 -14 6 3 10 1 10 -6 0 -7 3 -10 6 -6 8 8
-5 47 -17 47 -5 0 -9 -9 -9 -21z"/>
<path d="M200 2130 c0 -5 5 -10 10 -10 6 0 10 5 10 10 0 6 -4 10 -10 10 -5 0
-10 -4 -10 -10z"/>
<path d="M311 2124 c0 -11 3 -14 6 -6 3 7 2 16 -1 19 -3 4 -6 -2 -5 -13z"/>
<path d="M245 2111 c-3 -8 0 -19 6 -25 9 -8 10 -7 6 6 -4 12 2 20 21 27 l27
10 -27 -2 c-15 -1 -30 -8 -33 -16z"/>
<path d="M327 2094 c-16 -22 -16 -22 18 -11 40 12 55 35 21 33 -13 0 -30 -11
-39 -22z"/>
<path d="M576 2105 c4 -8 1 -15 -5 -15 -6 0 -11 -8 -10 -17 0 -10 3 -13 5 -6
3 7 11 10 19 7 7 -3 16 -1 20 5 3 6 1 11 -5 11 -7 0 -10 7 -6 15 3 9 0 15 -9
15 -9 0 -12 -6 -9 -15z"/>
<path d="M85 2093 c2 -10 4 -25 4 -33 1 -13 2 -13 11 0 9 13 14 7 11 -12 -1
-11 7 -10 30 2 28 16 23 29 -16 46 -43 18 -44 18 -40 -3z"/>
<path d="M270 2095 c0 -9 5 -15 11 -13 6 2 11 8 11 13 0 5 -5 11 -11 13 -6 2
-11 -4 -11 -13z"/>
<path d="M785 2100 c-3 -5 -1 -10 4 -10 6 0 11 5 11 10 0 6 -2 10 -4 10 -3 0
-8 -4 -11 -10z"/>
<path d="M169 2098 c-5 -16 -4 -46 2 -42 4 2 7 13 6 24 -1 17 -5 26 -8 18z"/>
<path d="M640 2090 c0 -13 12 -19 26 -13 21 8 17 22 -6 20 -11 -1 -20 -4 -20
-7z"/>
<path d="M24 2061 c21 -23 26 -26 26 -11 0 5 -10 15 -22 21 -23 12 -23 12 -4
-10z"/>
<path d="M490 2070 c0 -5 5 -10 11 -10 5 0 7 5 4 10 -3 6 -8 10 -11 10 -2 0
-4 -4 -4 -10z"/>
<path d="M508 2058 c-14 -14 -15 -18 -4 -18 8 0 17 7 20 16 9 23 4 24 -16 2z"/>
<path d="M197 2053 c7 -17 18 -16 32 1 10 11 7 14 -12 12 -15 0 -23 -6 -20
-13z"/>
<path d="M2 2048 c5 -15 28 -23 28 -10 0 5 -7 13 -16 16 -10 4 -14 1 -12 -6z"/>
<path d="M405 2050 c3 -5 8 -10 11 -10 2 0 4 5 4 10 0 6 -5 10 -11 10 -5 0 -7
-4 -4 -10z"/>
<path d="M180 2041 c0 -5 -10 -7 -22 -3 -14 3 -19 2 -14 -6 5 -8 0 -12 -13
-12 -12 0 -21 -4 -21 -10 0 -5 7 -10 15 -10 9 0 12 -6 9 -15 -5 -11 -2 -13 12
-8 13 5 15 3 9 -7 -6 -9 -4 -11 4 -6 7 5 10 14 7 22 -3 8 1 14 8 14 8 0 14 -6
13 -12 -1 -31 4 -49 11 -44 5 3 8 19 7 36 -2 28 1 31 36 36 21 4 40 12 43 19
3 10 -3 12 -22 9 -15 -3 -29 -10 -30 -15 -3 -6 -14 -3 -28 6 -13 8 -24 11 -24
6z"/>
<path d="M54 2027 c-14 -17 -6 -37 14 -37 14 0 15 2 2 10 -16 10 -15 12 15 28
l20 11 -20 0 c-11 0 -25 -5 -31 -12z"/>
<path d="M350 2009 c0 -5 5 -7 10 -4 6 3 10 8 10 11 0 2 -4 4 -10 4 -5 0 -10
-5 -10 -11z"/>
<path d="M485 2010 c3 -5 8 -10 11 -10 2 0 4 5 4 10 0 6 -5 10 -11 10 -5 0 -7
-4 -4 -10z"/>
<path d="M245 2001 c-3 -5 -2 -12 3 -15 5 -3 9 1 9 9 0 17 -3 19 -12 6z"/>
<path d="M7 1993 c7 -2 19 -2 26 0 6 3 1 5 -13 5 -14 0 -19 -2 -13 -5z"/>
<path d="M11 1966 c-15 -18 -5 -40 12 -29 16 11 57 11 57 0 0 -4 5 -5 10 -2
16 10 0 27 -17 20 -9 -3 -24 1 -33 10 -15 14 -19 14 -29 1z"/>
<path d="M389 1963 c-1 -5 -1 -11 0 -15 0 -5 -6 -8 -14 -8 -8 0 -15 -4 -15 -9
0 -5 9 -7 20 -4 11 3 20 14 20 24 0 18 -9 27 -11 12z"/>
<path d="M222 1948 c5 -15 28 -23 28 -10 0 5 -7 13 -16 16 -10 4 -14 1 -12 -6z"/>
<path d="M7510 1940 c6 -11 13 -20 16 -20 2 0 0 9 -6 20 -6 11 -13 20 -16 20
-2 0 0 -9 6 -20z"/>
<path d="M310 1940 c-8 -5 -10 -10 -5 -10 6 0 17 5 25 10 8 5 11 10 5 10 -5 0
-17 -5 -25 -10z"/>
<path d="M425 1930 c3 -5 8 -10 11 -10 2 0 4 5 4 10 0 6 -5 10 -11 10 -5 0 -7
-4 -4 -10z"/>
<path d="M3 1904 c-2 -7 0 -21 6 -32 7 -13 7 -22 -2 -31 -9 -9 -9 -14 3 -21 9
-5 17 -5 20 1 4 6 20 4 42 -5 29 -13 35 -13 35 -1 0 8 -7 17 -14 19 -8 3 -11
1 -8 -4 3 -6 2 -10 -3 -10 -6 0 -12 7 -16 15 -4 12 3 15 34 13 34 -1 38 -4 30
-19 -7 -12 -5 -19 6 -23 12 -4 14 -1 9 14 -5 15 -2 18 15 15 16 -3 20 0 17 10
-3 7 1 19 10 27 10 8 18 9 20 3 10 -29 21 -37 38 -28 16 9 16 10 0 16 -9 4
-13 12 -9 19 5 7 2 9 -8 5 -9 -3 -21 0 -27 6 -8 8 -11 8 -11 -2 0 -7 -4 -10
-10 -6 -5 3 -7 12 -3 20 3 10 -2 15 -16 15 -12 0 -24 -7 -27 -15 -6 -14 -8
-14 -19 1 -6 9 -18 14 -26 11 -10 -4 -9 -6 4 -6 21 -1 23 -21 2 -21 -8 0 -15
-4 -15 -9 0 -14 -35 -19 -52 -7 -13 9 -13 13 -2 24 8 7 14 8 14 2 0 -5 7 -10
15 -10 8 0 15 6 15 13 0 16 -61 17 -67 1z m166 -17 c8 -10 7 -14 -2 -14 -6 -1
-27 -4 -46 -9 -25 -5 -32 -4 -27 4 4 7 16 12 27 12 10 0 19 5 19 10 0 14 16
12 29 -3z m-9 -37 c0 -5 -2 -10 -4 -10 -3 0 -8 5 -11 10 -3 6 -1 10 4 10 6 0
11 -4 11 -10z"/>
<path d="M7381 1898 c-1 -24 39 -66 70 -73 30 -7 73 25 84 63 5 18 2 22 -15
22 -12 0 -33 -9 -47 -19 -19 -15 -30 -18 -49 -11 -13 5 -24 6 -25 2 0 -4 -4 2
-9 13 -7 16 -9 17 -9 3z"/>
<path d="M9306 1895 c-25 -19 -16 -19 20 0 16 8 22 15 14 15 -8 -1 -24 -7 -34
-15z"/>
<path d="M295 1882 c-5 -11 -9 -13 -12 -4 -8 20 -22 14 -16 -8 3 -11 12 -20
20 -20 8 0 11 -4 8 -10 -3 -5 -1 -10 4 -10 6 0 11 7 11 15 0 10 11 15 33 16
17 0 26 3 19 6 -6 2 -10 9 -6 14 3 5 -2 9 -10 9 -8 0 -18 -4 -21 -10 -3 -5
-12 -10 -18 -10 -8 0 -8 3 2 9 8 5 9 11 3 15 -5 3 -13 -2 -17 -12z"/>
<path d="M512 1883 c2 -9 10 -19 18 -21 12 -4 13 -3 3 10 -7 8 -10 18 -6 21 3
4 1 7 -6 7 -7 0 -11 -8 -9 -17z"/>
<path d="M731 1883 c-1 -18 19 -27 32 -13 9 10 8 12 -5 7 -9 -3 -19 -1 -22 6
-3 9 -5 9 -5 0z"/>
<path d="M7266 1869 c-14 -11 -24 -25 -21 -30 4 -5 0 -9 -7 -9 -16 0 -95 -80
-93 -95 3 -27 17 -55 26 -49 5 3 7 10 4 15 -4 5 -2 9 3 9 12 0 75 89 75 106 0
8 4 14 8 14 4 0 14 14 23 30 17 36 16 36 -18 9z m4 -19 c0 -5 -5 -10 -11 -10
-5 0 -7 5 -4 10 3 6 8 10 11 10 2 0 4 -4 4 -10z m-55 -78 c-3 -3 -11 0 -18 7
-9 10 -8 11 6 5 10 -3 15 -9 12 -12z"/>
<path d="M380 1873 c0 -5 6 -15 13 -22 10 -11 9 -13 -6 -8 -11 4 -16 3 -12 -3
9 -14 -9 -12 -23 2 -10 10 -15 10 -22 -2 -13 -20 -13 -43 0 -35 6 4 7 11 4 17
-4 5 6 2 22 -8 16 -10 26 -14 22 -9 -9 10 21 34 44 35 9 0 18 -6 21 -12 4 -10
7 -10 17 -1 11 10 10 14 -3 19 -9 3 -14 11 -10 17 4 6 -2 8 -17 4 -13 -3 -30
-1 -37 5 -7 6 -13 6 -13 1z"/>
<path d="M9102 1848 c-42 -26 -36 -32 16 -16 25 8 38 17 35 25 -6 17 -11 16
-51 -9z"/>
<path d="M572 1821 c-8 -4 -14 -12 -15 -17 -1 -5 -9 -7 -17 -6 -11 3 -12 1 -3
-8 13 -14 29 -7 43 21 12 21 11 22 -8 10z"/>
<path d="M170 1794 c0 -7 -3 -19 -6 -27 -4 -12 0 -14 16 -10 21 6 21 5 -3 -21
-13 -14 -29 -26 -35 -26 -5 0 -13 -7 -16 -16 -9 -23 -8 -26 6 -22 15 5 48 -33
48 -55 0 -9 -5 -19 -11 -23 -8 -5 -8 -8 0 -14 8 -4 9 -15 3 -30 -6 -16 -11
-19 -16 -12 -4 7 -13 9 -19 5 -9 -5 -9 -3 0 8 13 16 0 39 -21 39 -6 0 -3 -7 7
-14 16 -12 16 -14 1 -20 -9 -3 -14 -13 -11 -21 4 -10 1 -12 -10 -8 -11 4 -14
2 -9 -5 4 -7 1 -12 -9 -12 -9 0 -19 9 -22 20 -3 11 -9 18 -13 15 -4 -3 -11 2
-14 11 -5 12 -2 15 10 10 14 -5 15 -4 4 9 -13 15 -5 20 28 16 6 -1 20 3 30 9
13 8 11 9 -12 4 -19 -5 -27 -3 -23 3 4 6 -7 24 -24 41 -17 17 -28 35 -25 41 4
5 2 13 -4 16 -8 5 -7 12 2 23 11 15 11 15 -4 4 -13 -10 -14 -20 -7 -45 5 -18
13 -33 18 -35 6 -2 7 -10 4 -18 -4 -11 -9 -12 -19 -3 -9 7 -14 8 -14 1 0 -6 6
-12 13 -15 9 -4 9 -7 0 -18 -7 -7 -13 -17 -13 -23 0 -5 6 -1 14 10 13 17 14
15 10 -24 -3 -35 1 -47 20 -67 25 -25 25 -38 0 -28 -8 3 -12 9 -9 13 3 5 1 11
-5 15 -5 3 -10 1 -10 -5 0 -6 -5 -8 -12 -4 -8 5 -9 0 -4 -17 4 -13 8 -29 8
-35 1 -7 12 -11 25 -9 26 3 31 -10 8 -19 -21 -8 -7 -38 15 -31 12 4 20 -1 25
-17 13 -41 13 -48 4 -54 -17 -10 -9 -22 23 -38 39 -20 44 -20 28 -1 -10 12
-10 15 3 15 20 0 28 -24 14 -40 -9 -10 -9 -11 3 -5 28 17 49 39 44 47 -8 13
10 9 25 -4 11 -11 12 -10 6 1 -6 11 -4 13 11 7 40 -17 52 -17 68 -1 16 16 18
16 31 -1 20 -26 19 -9 -1 21 -8 13 -21 22 -29 19 -17 -7 -31 16 -15 26 7 4 9
13 6 19 -8 12 -27 15 -24 4 2 -5 -1 -9 -5 -10 -5 -1 -15 -10 -23 -20 -8 -11
-13 -13 -14 -5 0 6 -5 12 -12 12 -6 0 -8 -3 -5 -7 4 -3 2 -12 -4 -20 -15 -17
1 -17 28 2 20 14 21 13 25 -14 3 -21 1 -28 -9 -24 -7 3 -10 9 -7 14 3 5 -2 6
-11 3 -8 -3 -27 -3 -41 0 -25 7 -26 8 -8 21 23 16 18 22 -21 26 -16 2 -34 8
-38 14 -4 5 -7 -1 -5 -14 2 -14 -3 -26 -11 -29 -8 -3 -11 0 -7 7 4 6 2 11 -5
11 -8 0 -7 5 2 18 13 16 13 16 -5 2 -18 -14 -18 -14 -6 7 8 12 18 20 22 17 4
-3 5 3 1 13 -6 17 -5 17 14 1 26 -24 48 -23 50 1 1 14 -3 18 -15 15 -9 -3 5 7
32 21 46 25 50 26 80 11 l31 -16 -41 4 c-22 2 -47 0 -55 -5 -16 -10 -9 -12 46
-9 38 1 39 1 20 -15 -11 -9 -14 -13 -7 -10 8 4 20 -1 28 -14 9 -12 26 -21 40
-21 28 0 32 15 7 29 -15 9 -14 10 10 9 22 -2 27 -7 27 -28 0 -14 4 -20 8 -14
8 12 74 15 82 4 3 -4 11 -2 18 6 11 12 9 14 -10 15 -13 1 -30 1 -38 0 -11 -1
-10 1 3 9 9 6 15 15 12 21 -4 5 3 9 14 9 10 0 22 -5 24 -10 3 -6 4 -5 3 2 -2
7 -16 14 -32 15 -16 0 -36 2 -45 2 -12 1 -16 10 -15 30 1 28 16 58 16 33 0 -7
5 -12 10 -12 18 0 10 19 -11 25 -14 5 -25 2 -30 -6 -7 -11 -9 -10 -9 3 0 10
-3 17 -7 16 -5 0 -16 2 -25 6 -11 5 -23 1 -37 -13 -18 -18 -18 -21 -4 -33 13
-10 17 -10 20 0 6 16 23 15 23 -2 0 -16 -27 -30 -49 -27 -8 2 -27 16 -43 33
-25 27 -26 30 -10 35 26 6 18 63 -9 63 -12 0 -19 7 -19 20 0 21 15 27 25 10 3
-5 0 -10 -7 -11 -7 0 -1 -5 15 -11 15 -5 25 -14 21 -19 -3 -5 1 -9 9 -9 14 0
16 29 6 69 -2 7 2 16 10 19 10 3 12 0 8 -12 -6 -15 -4 -15 18 0 13 8 28 16 32
17 4 1 7 5 6 9 -2 5 0 7 5 7 17 -3 32 2 32 10 0 13 -64 -6 -68 -19 -2 -6 -8
-8 -12 -5 -5 3 -7 12 -3 20 3 9 -1 15 -11 15 -9 0 -16 -4 -16 -10 0 -5 -7 -10
-16 -10 -8 0 -13 4 -10 9 4 5 -3 7 -14 4 -11 -3 -17 -9 -14 -14 3 -5 -2 -6
-11 -3 -9 4 -13 9 -11 12 3 3 1 11 -5 19 -6 7 -8 13 -4 13 4 0 1 8 -6 17 -12
15 -12 16 6 9 17 -6 17 -4 -4 18 -18 19 -21 29 -13 39 8 10 6 13 -9 13 -10 0
-19 -6 -19 -12z m28 -85 c-10 -7 -10 -9 0 -9 6 0 12 -4 12 -10 0 -5 -7 -7 -15
-4 -8 4 -15 15 -15 25 0 13 5 16 16 12 13 -5 13 -7 2 -14z m37 -79 c-28 -12
-37 -12 -30 0 3 6 16 10 28 9 21 0 21 -1 2 -9z m-171 -21 c-9 -15 -34 -10 -28
5 3 8 12 12 20 9 8 -3 11 -9 8 -14z m176 -39 c6 0 9 -4 6 -9 -4 -5 0 -11 6
-14 9 -3 5 -12 -11 -31 -19 -21 -21 -26 -8 -26 9 0 19 -5 23 -12 5 -8 2 -9
-12 -4 -31 13 -75 16 -69 6 4 -6 -14 -10 -43 -10 -32 0 -52 5 -55 13 -3 8 1
14 9 14 7 0 11 -4 8 -9 -3 -4 6 -7 20 -6 15 1 26 6 26 9 0 11 30 39 41 39 5 0
9 -8 10 -17 0 -10 3 -13 5 -6 3 7 1 20 -5 30 -7 14 -5 21 12 30 19 10 19 12 4
13 -15 0 -16 2 -5 14 11 12 14 11 20 -5 4 -10 12 -19 18 -19z m109 -71 c-16
-10 -23 -4 -14 10 3 6 11 8 17 5 6 -4 5 -9 -3 -15z m36 -50 c-4 -19 -2 -28 5
-24 5 3 10 1 10 -4 0 -15 -27 -14 -32 0 -3 9 -10 9 -26 0 -14 -8 -22 -8 -22
-1 0 5 5 10 10 10 6 0 20 11 32 25 28 32 29 31 23 -6z m25 11 c0 -5 -5 -10
-11 -10 -5 0 -7 5 -4 10 3 6 8 10 11 10 2 0 4 -4 4 -10z m-270 -15 c0 -16 -35
-21 -44 -6 -8 12 4 21 26 21 10 0 18 -7 18 -15z m161 -158 c-10 -9 -11 -8 -5
6 3 10 9 15 12 12 3 -3 0 -11 -7 -18z m-161 9 c0 -2 -7 -6 -15 -10 -8 -3 -15
-1 -15 4 0 6 7 10 15 10 8 0 15 -2 15 -4z m53 -10 c9 -22 -18 -26 -31 -5 -10
16 -9 19 7 19 10 0 21 -6 24 -14z"/>
<path d="M410 1803 c-28 -11 -30 -28 -3 -35 33 -9 52 1 27 15 -17 10 -17 11 1
18 13 5 14 8 5 8 -8 -1 -22 -3 -30 -6z"/>
<path d="M771 1794 c0 -11 3 -14 6 -6 3 7 2 16 -1 19 -3 4 -6 -2 -5 -13z"/>
<path d="M29 1783 c-13 -16 -12 -17 4 -4 9 7 17 15 17 17 0 8 -8 3 -21 -13z"/>
<path d="M9119 1776 c10 -12 11 -20 4 -24 -7 -5 -4 -21 9 -52 41 -92 132 -277
173 -350 23 -41 67 -122 97 -180 30 -58 95 -179 143 -270 49 -91 107 -199 129
-242 22 -42 45 -74 50 -71 5 4 6 1 2 -5 -4 -6 2 -20 14 -32 11 -11 20 -26 20
-34 0 -8 6 -21 13 -28 7 -7 15 -17 16 -23 10 -32 21 -52 34 -64 9 -7 13 -19
10 -27 -3 -8 -1 -14 3 -14 5 0 20 -21 33 -48 14 -26 40 -72 58 -103 18 -31 33
-64 33 -73 0 -9 4 -16 9 -16 5 0 14 -12 19 -27 8 -22 11 1 11 97 1 88 -3 130
-11 139 -11 11 -10 13 2 7 8 -4 6 0 -4 8 -18 15 -15 21 8 17 5 -1 4 4 -2 12
-7 8 -10 16 -7 19 3 3 -8 4 -23 3 -18 -1 -29 3 -29 11 0 7 4 11 9 8 4 -3 8 -1
8 3 0 5 -9 14 -20 21 -12 7 -18 17 -15 22 3 6 2 10 -3 10 -5 0 -15 12 -22 28
-8 15 -23 40 -33 55 -10 15 -16 34 -13 43 3 8 -1 17 -10 21 -13 5 -13 7 -2 14
10 7 10 9 0 9 -10 0 -10 5 -2 21 10 19 10 20 -9 10 -17 -10 -21 -7 -32 24 -7
19 -19 35 -25 35 -7 0 -16 4 -19 10 -4 6 1 7 12 4 13 -4 10 2 -9 19 -15 14
-24 28 -21 31 3 3 -1 8 -10 12 -11 4 -15 13 -12 28 4 14 -4 31 -25 54 -17 17
-26 32 -21 32 6 0 2 9 -9 20 -11 11 -20 25 -20 31 0 18 -37 59 -46 51 -5 -4
-2 1 5 11 10 12 10 17 2 17 -7 0 -9 5 -6 10 4 6 1 9 -7 8 -7 -2 -13 6 -13 17
0 11 -11 30 -24 43 -13 12 -18 22 -12 22 9 0 9 4 -1 15 -30 34 -36 43 -31 49
3 3 -2 8 -11 12 -9 3 -13 10 -10 15 3 5 -1 12 -10 15 -8 3 -12 12 -9 20 3 9
-1 14 -12 14 -9 0 -13 5 -10 10 3 6 1 10 -5 10 -6 0 -8 5 -5 10 3 6 2 10 -3
10 -5 0 -12 8 -15 18 -8 25 -40 76 -54 85 -6 4 -14 21 -18 37 -4 17 -11 30
-15 30 -5 0 -22 26 -37 58 -15 31 -34 61 -41 65 -7 5 -10 12 -7 17 3 4 -2 10
-10 14 -8 3 -15 14 -15 26 0 11 -9 25 -20 32 -11 7 -20 18 -20 25 0 7 -7 13
-16 13 -8 0 -13 4 -10 8 2 4 -5 14 -17 22 -20 12 -21 12 -8 -4z"/>
<path d="M220 1770 c0 -5 7 -10 15 -10 9 0 12 -6 9 -15 -4 -8 -1 -15 6 -15 6
0 8 5 5 10 -3 6 -1 10 6 10 7 0 4 7 -7 15 -23 17 -34 19 -34 5z"/>
<path d="M70 1760 c0 -5 5 -10 10 -10 6 0 10 5 10 10 0 6 -4 10 -10 10 -5 0
-10 -4 -10 -10z"/>
<path d="M499 1747 c11 -13 21 -31 21 -41 0 -9 5 -14 10 -11 7 4 7 13 0 26 -9
15 -7 19 5 19 8 0 15 5 15 12 0 6 -3 9 -6 6 -3 -4 -19 -2 -36 3 l-31 8 22 -22z"/>
<path d="M100 1750 c0 -5 5 -10 11 -10 5 0 7 5 4 10 -3 6 -8 10 -11 10 -2 0
-4 -4 -4 -10z"/>
<path d="M136 1752 c-3 -5 1 -15 9 -22 16 -14 20 -3 6 19 -5 8 -11 9 -15 3z"/>
<path d="M391 1740 c9 -14 25 -25 35 -25 15 0 19 -8 19 -38 0 -20 3 -37 8 -37
8 0 10 21 7 60 -2 21 0 22 14 11 14 -12 16 -12 10 3 -6 15 -17 20 -36 17 -5 0
-8 3 -8 9 0 5 -7 7 -15 4 -8 -4 -23 0 -33 7 -16 13 -16 12 -1 -11z"/>
<path d="M613 1745 c0 -8 4 -15 9 -15 4 0 8 7 8 15 0 8 -4 15 -8 15 -5 0 -9
-7 -9 -15z"/>
<path d="M53 1743 c4 -6 -1 -14 -11 -18 -16 -7 -15 -8 3 -15 11 -5 14 -9 8 -9
-19 -1 -16 -31 3 -31 8 0 12 4 9 10 -9 15 14 52 28 44 7 -4 8 -3 4 2 -5 5 -12
9 -15 9 -4 0 -13 4 -21 9 -9 6 -12 5 -8 -1z"/>
<path d="M7097 1698 c-15 -16 -25 -34 -21 -40 4 -7 9 -6 15 3 13 22 23 1 11
-26 -6 -14 -7 -27 -2 -30 11 -7 41 35 33 48 -3 6 -1 7 5 3 6 -3 13 -2 16 3 8
13 -4 42 -15 35 -5 -3 -7 -10 -4 -15 4 -5 -1 -9 -9 -9 -20 0 -20 14 -1 34 8 8
12 17 8 19 -5 2 -20 -9 -36 -25z"/>
<path d="M87 1703 c-11 -11 -8 -20 7 -20 8 0 12 6 9 14 -6 15 -7 15 -16 6z"/>
<path d="M350 1706 c0 -9 30 -14 35 -6 4 6 -3 10 -14 10 -12 0 -21 -2 -21 -4z"/>
<path d="M425 1680 c3 -5 8 -10 11 -10 2 0 4 5 4 10 0 6 -5 10 -11 10 -5 0 -7
-4 -4 -10z"/>
<path d="M101 1657 c-14 -14 -14 -27 0 -27 5 0 7 5 3 12 -5 8 0 9 14 6 24 -7
31 7 8 15 -7 3 -19 0 -25 -6z"/>
<path d="M400 1636 c0 -2 7 -6 15 -10 8 -3 15 -1 15 4 0 6 -7 10 -15 10 -8 0
-15 -2 -15 -4z"/>
<path d="M130 1610 c0 -5 5 -10 11 -10 5 0 7 5 4 10 -3 6 -8 10 -11 10 -2 0
-4 -4 -4 -10z"/>
<path d="M720 1610 c0 -5 5 -10 11 -10 5 0 7 5 4 10 -3 6 -8 10 -11 10 -2 0
-4 -4 -4 -10z"/>
<path d="M7076 1574 c-9 -24 -2 -26 12 -4 7 11 8 20 3 20 -5 0 -12 -7 -15 -16z"/>
<path d="M70 1566 c0 -20 13 -27 29 -16 11 6 9 10 -8 19 -17 10 -21 9 -21 -3z"/>
<path d="M415 1562 c-15 -11 -18 -42 -4 -42 7 0 9 3 6 7 -4 3 0 15 10 25 16
18 8 25 -12 10z"/>
<path d="M631 1552 c-1 -8 -6 -10 -13 -6 -10 5 -10 4 -1 -6 15 -16 28 -8 20
12 -4 11 -6 11 -6 0z"/>
<path d="M0 1531 c0 -6 4 -13 10 -16 6 -3 7 1 4 9 -7 18 -14 21 -14 7z"/>
<path d="M463 1504 c-6 -16 12 -34 32 -34 6 1 2 5 -7 11 -10 5 -18 15 -18 20
0 6 5 7 12 3 7 -4 8 -3 4 4 -10 16 -15 15 -23 -4z"/>
<path d="M276 1502 c-3 -5 1 -15 9 -22 21 -17 27 -9 10 13 -7 10 -16 14 -19 9z"/>
<path d="M654 1503 c10 -11 36 -12 36 -2 0 5 -10 9 -22 9 -12 0 -18 -3 -14 -7z"/>
<path d="M6994 1463 c-18 -17 -24 -28 -16 -31 7 -2 9 -9 6 -15 -3 -7 4 -1 15
13 51 59 47 81 -5 33z"/>
<path d="M590 1470 c0 -5 5 -10 11 -10 5 0 7 5 4 10 -3 6 -8 10 -11 10 -2 0
-4 -4 -4 -10z"/>
<path d="M8260 1477 c0 -4 18 -36 40 -72 22 -36 40 -70 40 -75 0 -6 5 -10 10
-10 6 0 10 -5 10 -11 0 -6 25 -48 55 -94 30 -45 55 -84 55 -87 0 -3 23 -42 50
-88 28 -46 50 -89 50 -97 0 -7 4 -13 9 -13 5 0 17 -21 27 -46 16 -43 17 -47 1
-59 -9 -6 -14 -15 -10 -18 3 -4 2 -7 -4 -7 -6 0 -16 7 -23 15 -7 8 -17 12 -23
8 -6 -3 -7 -1 -3 5 4 7 2 12 -3 12 -6 0 -11 7 -11 15 0 8 -6 15 -13 15 -14 0
-67 56 -67 71 0 5 -4 9 -9 9 -5 0 -71 88 -146 195 -75 107 -142 195 -149 195
-6 0 -40 -18 -74 -40 -33 -22 -65 -40 -69 -40 -4 0 -14 -4 -22 -9 -11 -7 -4
-23 34 -77 26 -38 40 -62 31 -55 -9 7 -16 10 -16 6 0 -4 -14 5 -31 19 -35 30
-53 25 -45 -10 4 -13 3 -23 -1 -22 -16 3 -43 -15 -43 -28 0 -8 -7 -14 -16 -14
-10 0 -14 -6 -11 -14 12 -31 -19 -21 -55 17 -21 22 -41 37 -45 34 -10 -10 226
-355 336 -491 130 -162 374 -406 496 -497 167 -125 154 -120 297 -117 l123 3
-1 25 c0 14 -4 37 -9 52 -7 27 -6 28 37 28 36 0 47 -5 68 -30 14 -16 30 -30
37 -30 23 0 83 35 83 49 0 8 -60 111 -132 228 -73 117 -142 229 -154 248 -11
20 -29 42 -40 51 -10 8 -13 12 -6 9 11 -6 11 -3 1 13 -7 12 -17 18 -21 16 -4
-3 -8 2 -8 12 0 9 -8 23 -17 31 -12 9 -13 12 -3 8 8 -4 4 3 -10 14 -14 11 -20
21 -15 21 6 0 2 5 -8 11 -9 6 -15 14 -12 20 4 5 1 9 -5 9 -6 0 -8 5 -5 10 3 6
1 10 -4 10 -6 0 -11 7 -11 16 0 8 -4 13 -9 10 -5 -3 -12 1 -15 10 -4 10 -1 13
7 9 6 -3 2 2 -10 11 -13 9 -23 21 -23 26 0 5 -12 26 -27 46 -16 20 -21 33 -13
28 9 -4 8 -2 -2 7 -10 8 -15 17 -11 20 3 4 -2 9 -11 13 -9 3 -14 10 -11 14 3
4 -2 11 -11 14 -8 3 -13 10 -10 14 3 5 -4 18 -14 30 -11 12 -20 26 -20 32 0 5
-5 10 -12 10 -6 0 -9 3 -5 6 3 4 -8 27 -26 53 -17 25 -32 49 -32 52 0 3 -7 12
-15 21 -8 9 -22 26 -30 38 -8 12 -23 33 -32 45 -10 13 -18 26 -18 29 0 8 -71
106 -77 106 -2 0 -11 -7 -19 -15 -9 -8 -12 -15 -8 -15 3 0 1 -7 -6 -16 -12
-13 -17 -11 -47 22 -18 21 -33 35 -33 31z m-246 -260 c7 -7 19 -24 26 -37 l13
-25 -22 20 c-24 21 -46 55 -36 55 4 0 12 -6 19 -13z m106 3 c0 -5 -4 -10 -10
-10 -5 0 -10 5 -10 10 0 6 5 10 10 10 6 0 10 -4 10 -10z m65 -10 c3 -5 1 -10
-4 -10 -6 0 -11 5 -11 10 0 6 2 10 4 10 3 0 8 -4 11 -10z m55 -190 c62 -91
134 -194 158 -230 25 -36 38 -58 30 -50 -15 15 -267 375 -303 435 -42 68 9 0
115 -155z m-39 -117 c13 -16 12 -17 -3 -4 -10 7 -18 15 -18 17 0 8 8 3 21 -13z
m79 -58 c13 -14 21 -25 18 -25 -2 0 -15 11 -28 25 -13 14 -21 25 -18 25 2 0
15 -11 28 -25z m347 -43 c0 -10 -7 -19 -13 -19 -9 0 -10 5 -3 19 5 10 12 18
14 18 2 0 3 -8 2 -18z m-157 -112 c12 -16 19 -30 16 -30 -2 0 -14 14 -26 30
-12 17 -19 30 -16 30 2 0 14 -13 26 -30z m45 -98 c-2 -3 0 -14 6 -26 10 -21
10 -21 -6 -1 -8 11 -26 28 -38 38 -20 16 -20 17 -2 11 13 -5 2 12 -30 47 l-50
54 62 -59 c34 -33 61 -62 58 -64z m-114 91 c13 -16 12 -17 -3 -4 -17 13 -22
21 -14 21 2 0 10 -8 17 -17z m40 -40 c13 -16 12 -17 -3 -4 -17 13 -22 21 -14
21 2 0 10 -8 17 -17z m266 -60 c-30 -57 -62 -93 -83 -93 -9 0 -12 -5 -8 -12 4
-7 -9 3 -30 21 -24 24 -33 38 -26 45 7 7 19 2 37 -16 l26 -27 29 37 c15 20 38
51 50 69 32 44 34 34 5 -24z m-74 -13 c3 -13 0 -20 -9 -20 -8 0 -14 2 -14 4 0
2 -3 11 -6 20 -4 10 -1 16 9 16 8 0 17 -9 20 -20z m30 -108 c15 -16 15 -19 2
-19 -8 0 -13 3 -10 5 3 3 0 11 -6 19 -17 20 -5 16 14 -5z"/>
<path d="M8580 515 c13 -14 26 -23 28 -20 7 7 -29 45 -41 45 -6 0 0 -11 13
-25z"/>
<path d="M436 1445 c4 -8 10 -12 15 -9 11 6 2 24 -11 24 -5 0 -7 -7 -4 -15z"/>
<path d="M533 1443 c1 -24 40 -44 59 -31 10 7 9 8 -4 6 -9 -2 -25 8 -36 20
-19 21 -21 22 -19 5z"/>
<path d="M531 1373 c7 -10 15 -20 16 -22 2 -2 3 3 3 11 0 9 -7 19 -16 22 -15
6 -15 4 -3 -11z"/>
<path d="M605 1380 c-3 -5 -1 -10 4 -10 6 0 11 5 11 10 0 6 -2 10 -4 10 -3 0
-8 -4 -11 -10z"/>
<path d="M17 1343 c4 -10 2 -14 -4 -10 -14 9 -11 -11 5 -38 6 -11 12 -14 12
-7 0 6 11 12 24 12 31 0 40 14 21 30 -8 7 -12 16 -9 21 3 5 -8 9 -25 9 -24 0
-29 -3 -24 -17z m43 -13 c8 -5 12 -11 10 -14 -3 -2 -14 2 -24 10 -22 15 -10
19 14 4z m-30 -20 c0 -5 -2 -10 -4 -10 -3 0 -8 5 -11 10 -3 6 -1 10 4 10 6 0
11 -4 11 -10z"/>
<path d="M360 1341 c0 -5 8 -12 18 -14 16 -4 16 -5 0 -6 -10 0 -18 -5 -18 -11
0 -5 8 -10 18 -10 14 0 15 -2 2 -10 -13 -8 -12 -10 3 -10 11 0 15 -4 11 -12
-4 -6 -3 -8 4 -4 6 3 9 18 6 31 -2 14 0 25 6 25 5 0 10 4 10 10 0 5 -6 7 -14
4 -8 -3 -17 -1 -21 5 -8 13 -25 14 -25 2z"/>
<path d="M467 1329 c7 -7 15 -10 18 -7 3 3 -2 9 -12 12 -14 6 -15 5 -6 -5z"/>
<path d="M506 1311 c-4 -5 3 -7 14 -4 23 6 26 13 6 13 -8 0 -17 -4 -20 -9z"/>
<path d="M480 1290 c0 -6 7 -10 15 -10 8 0 15 2 15 4 0 2 -7 6 -15 10 -8 3
-15 1 -15 -4z"/>
<path d="M963 1284 c0 -7 6 -10 14 -7 7 3 13 8 13 12 0 4 -6 8 -13 8 -8 0 -14
-6 -14 -13z"/>
<path d="M57 1269 c-9 -6 -21 -8 -26 -4 -5 3 -12 1 -15 -4 -5 -8 24 -21 50
-21 14 0 26 27 16 34 -4 2 -15 0 -25 -5z"/>
<path d="M457 1274 c-10 -11 -9 -46 2 -39 5 3 13 0 17 -6 4 -8 9 -7 15 2 10
16 12 35 2 26 -3 -4 -11 0 -17 9 -6 8 -15 12 -19 8z"/>
<path d="M265 1250 c-3 -5 1 -10 9 -10 9 0 16 5 16 10 0 6 -4 10 -9 10 -6 0
-13 -4 -16 -10z"/>
<path d="M314 1245 c-10 -8 -14 -14 -9 -14 6 0 19 6 29 14 11 8 15 15 10 15
-6 0 -19 -7 -30 -15z"/>
<path d="M12 1232 c-7 -5 -10 -16 -6 -25 7 -19 20 -22 29 -7 3 6 -2 10 -12 10
-14 0 -15 2 -4 9 8 5 21 7 30 4 14 -4 14 -3 1 6 -18 13 -21 13 -38 3z"/>
<path d="M120 1230 c0 -5 5 -10 11 -10 5 0 7 5 4 10 -3 6 -8 10 -11 10 -2 0
-4 -4 -4 -10z"/>
<path d="M210 1230 c-15 -9 -13 -11 12 -14 6 0 13 -7 16 -15 3 -8 0 -11 -6 -7
-11 7 -42 -2 -42 -13 0 -4 15 -5 34 -3 18 2 37 -1 40 -7 11 -18 34 -13 41 9 4
12 11 17 18 13 7 -4 6 0 -2 10 -10 13 -17 14 -34 5 -21 -11 -21 -11 -2 -18 14
-5 15 -9 6 -14 -8 -5 -20 -2 -29 8 -15 15 -15 18 -2 26 13 8 12 10 -2 10 -10
0 -18 5 -18 10 0 13 -11 13 -30 0z"/>
<path d="M564 1233 c4 -8 2 -13 -7 -13 -8 0 -17 -6 -20 -13 -3 -8 2 -13 12
-12 24 2 66 33 57 42 -5 5 -11 2 -13 -5 -4 -10 -8 -10 -21 0 -12 10 -14 10 -8
1z"/>
<path d="M168 1213 c7 -3 16 -2 19 1 4 3 -2 6 -13 5 -11 0 -14 -3 -6 -6z"/>
<path d="M115 1200 c-4 -6 -11 -8 -16 -5 -5 4 -9 -2 -9 -11 0 -16 1 -16 20 1
11 10 20 20 20 22 0 7 -9 3 -15 -7z"/>
<path d="M463 1192 c0 -10 10 -18 23 -18 21 -2 21 -1 6 17 -20 24 -31 24 -29
1z"/>
<path d="M43 1193 c-18 -7 -16 -23 3 -23 8 0 12 5 9 10 -3 6 -2 10 4 10 5 0
12 -6 14 -12 3 -8 6 -6 6 5 1 17 -12 20 -36 10z"/>
<path d="M6 1148 c3 -4 9 -8 15 -8 5 0 9 4 9 8 0 5 -7 9 -15 9 -8 0 -12 -4 -9
-9z"/>
<path d="M70 1145 c0 -8 2 -15 4 -15 2 0 6 7 10 15 3 8 1 15 -4 15 -6 0 -10
-7 -10 -15z"/>
<path d="M225 1150 c4 -6 -6 -10 -21 -10 -40 0 -24 -9 24 -14 23 -2 42 0 42 6
0 5 -4 6 -10 3 -5 -3 -10 -2 -10 3 0 6 -7 13 -16 16 -8 3 -12 2 -9 -4z"/>
<path d="M390 1141 c-13 -13 -12 -14 4 -8 10 4 22 7 27 7 5 0 9 4 9 8 0 14
-25 10 -40 -7z"/>
<path d="M320 1135 c0 -9 6 -12 15 -9 8 4 15 7 15 9 0 2 -7 5 -15 9 -9 3 -15
0 -15 -9z"/>
<path d="M86 1124 c-3 -9 -6 -23 -6 -32 0 -14 2 -15 9 -3 8 12 11 9 16 -12 7
-25 8 -26 20 -10 15 20 1 58 -17 47 -6 -4 -8 -3 -4 4 3 6 2 13 -3 16 -5 3 -12
-1 -15 -10z"/>
<path d="M453 1133 c9 -2 15 -9 12 -14 -4 -5 3 -9 15 -9 32 0 18 23 -16 26
-16 1 -21 0 -11 -3z"/>
<path d="M540 1126 c0 -8 5 -18 12 -22 7 -5 9 -2 5 9 -3 9 -1 18 6 21 7 2 4 5
-5 5 -10 1 -18 -5 -18 -13z"/>
<path d="M42 1123 c-9 -3 -10 -9 -2 -18 7 -9 6 -16 -5 -25 -11 -9 -15 -9 -15
-1 0 7 -5 9 -10 6 -6 -3 -10 -12 -10 -20 0 -11 6 -11 30 -2 29 11 49 37 29 37
-6 0 -9 7 -5 15 3 8 4 15 3 14 -1 0 -8 -3 -15 -6z"/>
<path d="M303 1090 c2 -24 -2 -34 -11 -32 -8 1 -11 -2 -7 -8 5 -8 13 -6 26 6
18 16 19 16 19 -5 0 -18 2 -20 14 -9 12 11 10 16 -11 29 -14 9 -24 19 -23 23
1 4 -1 12 -3 19 -3 6 -4 -4 -4 -23z"/>
<path d="M244 1065 c-12 -8 -24 -11 -28 -8 -3 3 -6 1 -6 -5 0 -16 13 -15 28 0
10 10 15 10 22 -2 8 -12 10 -10 10 8 0 26 0 26 -26 7z"/>
<path d="M410 1070 c0 -5 4 -10 9 -10 6 0 13 5 16 10 3 6 -1 10 -9 10 -9 0
-16 -4 -16 -10z"/>
<path d="M143 1038 c-13 -6 -23 -15 -23 -20 0 -5 11 -1 25 8 37 24 35 30 -2
12z"/>
<path d="M60 1030 c0 -13 11 -13 30 0 12 8 11 10 -7 10 -13 0 -23 -4 -23 -10z"/>
<path d="M5637 1005 c-9 -19 -15 -35 -13 -35 2 0 16 16 30 35 18 23 22 35 13
35 -7 0 -21 -16 -30 -35z"/>
<path d="M496 1015 c-3 -8 -1 -15 4 -15 13 0 22 18 11 24 -5 3 -11 -1 -15 -9z"/>
<path d="M20 1009 c0 -6 -4 -7 -10 -4 -5 3 -10 -1 -10 -11 0 -12 4 -14 13 -7
6 6 19 12 26 15 12 3 12 6 -2 11 -9 3 -17 2 -17 -4z"/>
<path d="M80 1012 c0 -5 7 -9 15 -9 8 0 15 4 15 9 0 4 -7 8 -15 8 -8 0 -15 -4
-15 -8z"/>
<path d="M17 976 c-17 -13 -16 -14 2 -19 11 -3 20 -2 19 2 -2 18 4 21 23 10
17 -8 20 -8 17 2 -6 17 -40 20 -61 5z"/>
<path d="M101 981 c-9 -6 -10 -11 -2 -15 6 -4 9 -12 6 -17 -4 -5 1 -9 9 -9 9
0 16 8 16 19 0 11 6 22 13 24 6 3 3 6 -8 6 -11 0 -26 -3 -34 -8z"/>
<path d="M428 983 c6 -2 10 -9 7 -14 -4 -5 1 -6 9 -3 24 9 19 24 -6 23 -13 0
-17 -3 -10 -6z"/>
<path d="M188 964 c17 -12 20 -19 12 -34 -5 -10 -7 -26 -4 -34 7 -17 34 -22
34 -6 0 6 -7 10 -15 10 -20 0 -19 17 1 28 15 8 15 11 -5 31 -11 11 -27 21 -33
21 -7 0 -2 -7 10 -16z"/>
<path d="M340 969 c0 -6 -8 -9 -20 -6 -15 4 -20 0 -20 -16 0 -12 4 -17 8 -12
4 6 18 15 31 21 17 7 21 13 13 18 -7 4 -12 2 -12 -5z"/>
<path d="M370 971 c0 -6 5 -11 12 -11 6 0 3 -7 -8 -15 -18 -14 -18 -14 4 -8
26 6 28 16 7 33 -10 9 -15 9 -15 1z"/>
<path d="M497 964 c-4 -4 -4 -10 -1 -15 6 -10 34 0 34 12 0 10 -24 12 -33 3z"/>
<path d="M5698 910 c-14 -33 -24 -60 -22 -60 7 0 57 111 52 115 -2 2 -16 -23
-30 -55z"/>
<path d="M547 949 c7 -7 15 -10 18 -7 3 3 -2 9 -12 12 -14 6 -15 5 -6 -5z"/>
<path d="M16 924 c-8 -21 -8 -24 5 -24 5 0 7 5 4 10 -3 6 1 10 10 10 9 0 13 5
10 10 -9 15 -22 12 -29 -6z"/>
<path d="M104 918 c3 -17 28 -17 34 0 2 6 -1 12 -8 12 -6 0 -8 -4 -5 -10 3 -5
2 -10 -4 -10 -5 0 -12 5 -14 10 -3 6 -4 5 -3 -2z"/>
<path d="M332 910 c-16 -26 -15 -29 6 -25 9 2 20 4 25 4 4 1 7 6 7 12 0 6 -7
9 -14 6 -10 -4 -13 -1 -9 9 8 20 0 17 -15 -6z"/>
<path d="M73 912 c-8 -5 -9 -13 -3 -22 6 -9 4 -20 -3 -29 -8 -9 -2 -8 16 4 23
15 25 20 15 34 -7 9 -13 17 -13 18 0 1 -6 -1 -12 -5z"/>
<path d="M7318 881 c-16 -10 -25 -21 -21 -25 4 -4 0 -4 -9 -1 -8 3 -22 -1 -31
-9 -9 -9 -21 -16 -27 -16 -6 0 -9 -4 -6 -8 2 -4 -5 -9 -16 -9 -11 -1 -26 -10
-32 -19 -7 -9 -18 -14 -25 -10 -6 4 -10 3 -9 -3 3 -11 -17 -25 -72 -53 -14 -7
-28 -17 -32 -23 -4 -5 -8 -6 -8 -1 0 5 -10 0 -22 -11 -13 -11 -44 -30 -69 -43
-34 -16 -45 -27 -42 -40 3 -12 -10 -26 -46 -48 -40 -25 -50 -28 -53 -15 -2 12
-6 11 -22 -6 -20 -22 -20 -22 0 -15 11 5 6 -4 -14 -20 -18 -16 -46 -29 -63
-31 -16 -1 -33 -6 -37 -10 -4 -5 -2 -5 5 -1 6 3 14 2 17 -2 3 -5 -5 -14 -18
-20 -46 -21 -256 -163 -256 -172 0 -16 54 15 391 223 519 320 569 352 569 360
0 4 -6 7 -14 7 -9 0 -13 7 -11 20 2 11 3 20 2 19 -1 0 -14 -8 -29 -18z"/>
<path d="M123 858 c0 -13 1 -17 4 -10 3 6 10 9 16 5 7 -4 6 1 -2 10 -17 21
-17 21 -18 -5z"/>
<path d="M166 855 c4 -8 10 -15 15 -15 4 0 6 7 3 15 -4 8 -10 15 -15 15 -4 0
-6 -7 -3 -15z"/>
<path d="M103 815 c3 -26 6 -30 31 -27 15 2 25 -1 22 -6 -3 -5 1 -17 8 -28 13
-17 13 -16 11 10 -3 24 -1 25 12 14 15 -12 15 -10 4 10 -8 15 -18 21 -27 18
-9 -4 -12 -2 -8 5 4 7 0 9 -14 5 -14 -5 -24 -1 -31 11 -8 15 -10 13 -8 -12z"/>
<path d="M46 821 c-3 -5 4 -11 16 -14 29 -8 32 -4 8 11 -10 6 -21 8 -24 3z"/>
<path d="M19 798 c-6 -21 -5 -38 1 -38 5 0 8 9 7 20 -1 17 -5 26 -8 18z"/>
<path d="M50 781 c0 -5 11 -11 24 -13 15 -3 23 -1 20 6 -5 13 -44 19 -44 7z"/>
<path d="M190 729 c0 -5 5 -7 10 -4 6 3 10 8 10 11 0 2 -4 4 -10 4 -5 0 -10
-5 -10 -11z"/>
<path d="M198 703 c7 -3 16 -2 19 1 4 3 -2 6 -13 5 -11 0 -14 -3 -6 -6z"/>
<path d="M82 668 c2 -7 -3 -12 -10 -10 -8 1 -11 -2 -7 -8 4 -7 13 -6 27 1 18
10 20 9 15 -4 -4 -11 -2 -14 8 -10 18 6 11 19 -16 33 -15 8 -19 8 -17 -2z"/>
<path d="M530 648 c0 -4 7 -8 15 -8 8 0 15 4 15 8 0 5 -7 9 -15 9 -8 0 -15 -4
-15 -9z"/>
<path d="M160 629 c0 -5 5 -7 10 -4 6 3 10 8 10 11 0 2 -4 4 -10 4 -5 0 -10
-5 -10 -11z"/>
<path d="M6850 579 c0 -5 5 -7 10 -4 6 3 10 8 10 11 0 2 -4 4 -10 4 -5 0 -10
-5 -10 -11z"/>
<path d="M6810 560 c0 -5 7 -7 15 -4 8 4 15 8 15 10 0 2 -7 4 -15 4 -8 0 -15
-4 -15 -10z"/>
<path d="M9880 540 c0 -5 5 -10 10 -10 6 0 10 5 10 10 0 6 -4 10 -10 10 -5 0
-10 -4 -10 -10z"/>
<path d="M6730 513 c-18 -8 -44 -33 -33 -33 4 0 19 9 33 20 26 20 26 23 0 13z"/>
<path d="M9930 450 c0 -6 5 -10 11 -10 7 0 18 -8 26 -17 13 -16 13 -16 4 3
-11 23 -41 40 -41 24z"/>
</g>
</svg>
