<?xml version="1.0" encoding="UTF-8"?>
<svg version="1.1" viewBox="0 0 1600 1600" width="1280" height="1280" xmlns="http://www.w3.org/2000/svg">
<path transform="translate(447,127)" d="m0 0h713l33 2 26 3 19 4 23 7 31 14 17 10 19 13 13 10 14 12 19 19 13 17 12 17 9 16 10 19 8 20 7 23 4 19 2 15 2 34 1 34v569l-1 221-2 32-4 32-6 22-10 28-12 24-12 18-8 11-11 14-12 14-13 13-17 13-14 10-21 13-22 11-25 9-21 6-22 4-21 2-19 1h-749l-34-3-24-5-27-9-24-11-18-10-20-14-13-11-8-7-24-24-11-14-10-14-12-20-8-16-11-25-7-24-4-19-3-29-1-20v-836l2-29 5-25 11-33 7-16 10-19 9-15 7-10 12-16 9-11 11-12 15-14 20-15 15-10 16-9 19-9 21-8 22-6 26-4 23-2zm47 63-47 1-32 2-27 4-24 7-15 6-21 11-17 12-14 12-10 9v2h-2l-9 11-8 10-12 17-12 23-6 14-7 26-3 19-1 11-1 30v587l2 30 3 18 6 20 8 20 13 24 12 17 11 13 17 17 14 11 13 9 18 10 18 8 18 6 18 4 28 3 26 1h709l28-2 26-4 19-5 25-10 21-12 18-13 10-9 8-7 11-11 9-11 12-18 10-18 9-24 6-21 3-22 1-18 1-53v-475l-1-84-2-26-3-19-5-17-8-21-10-20-12-19-9-11-11-12-13-12-18-13-15-9-16-8-14-6-25-7-13-3-28-3-16-1-163-1zm-269 992 1 49 2 27 3 18 5 19 6 17 12 23 7 11 9 12 12 14 13 13 11 9 16 11 17 10 17 8 16 6 26 6 31 3 28 1h694l25-1 26-3 20-4 16-5 18-7 18-10 12-8 16-12 10-9 14-14 8-10 8-11 10-18 7-14 8-25 5-20 4-29 1-13 1-32-1-8-5 2-7 7-8 7-11 10-19 14-18 12-23 13-21 9-25 8-21 5-25 3-14 1-45 1h-699l-25-1-33-4-20-5-18-6-25-11-18-10-24-16-11-9-14-12-14-14-5-6z"/>
<path transform="translate(770,447)" d="m0 0 60 1 4 2 1 2v57l-1 162h221l3 2v54l-2 6-3 1-138 1h-81v222l-3 2h-25l-35-1-2-1v-222h-216l-7-1-2-3v-37l1-21 2-2h222l-1-26v-56l1-141z"/>
</svg>
