<?xml version="1.0" encoding="UTF-8"?>
<svg version="1.1" viewBox="0 0 1600 1600" width="1280" height="1280" xmlns="http://www.w3.org/2000/svg">
<path transform="translate(215,95)" d="m0 0h310l23 1 11 1 12 5 10 7 7 6 10 13 7 14 1 3 1 11 1 227 383-1v-205l1-27 3-12 5-10 8-10 2-3h2v-2l13-10 10-5 17-2 51-1h321l31 2 12 5 13 9 7 8 9 13 5 10 2 16v1263l-1 29-3 15-5 9-9 10-7 6-13 8-10 2-9 1-21 1-72 1h-315l-5-4-3-3v-2l-9-1-5 6-1 2-6 1-86 1h-334l-4-3-5-1-1 1h-13l-2-1-1 2-5 1-118 1h-267l-22-1-14-3-12-6-10-9-7-8-6-8-4-10-2-11-1-44v-1180l1-67 2-14 5-12 8-11 11-11 14-9 8-2 13-1zm-52 64-4 2v1278h382l2-1v-1278l-2-1zm896 0-4 1v1279l369 1 13-1 2-1v-1278l-2-1zm-451 288-1 2v990h382l2-1v-989l-1-2zm-36 1046-2 2 1 1-2 2 5-1 4-4zm6 1v3h3l-2-1z"/>
<path transform="translate(273,1215)" d="m0 0h174l15 2 6 3 6 7 2 6v24l-2 10-5 8-4 2-6 1-40 1h-166l-15-2-7-6-6-12-1-6v-11l3-11 5-7 8-6 8-2z"/>
<path transform="translate(1168,1215)" d="m0 0h176l14 2 6 3 6 7 2 6v24l-2 10-5 8-4 2-6 1-48 1h-159l-14-2-7-6-6-12-1-5v-13l3-10 5-7 8-6 9-2z"/>
<path transform="translate(306,1087)" d="m0 0h118l26 1 14 2 6 3v2h2l3 7 1 9v14l-2 13-4 8-6 3-6 1-88 1h-118l-14-2-4-2-7-10-3-9v-17l3-10 6-7 8-4 4-1 18-1z"/>
<path transform="translate(1198,1087)" d="m0 0h121l26 1 14 2 7 3v2h2l3 7v33l-4 9-4 4-9 2-81 1h-125l-14-2-8-7-5-9-1-4v-19l4-11 8-7 10-3 17-1z"/>
<path transform="translate(754,639)" d="m0 0h119l26 1 12 2 6 3 5 6 2 7v25l-3 10-6 7-9 2-69 1h-130l-15-1-9-3-6-7-4-9-1-5v-12l3-11 4-6 7-6 7-2 17-1z"/>
<path transform="translate(1200,351)" d="m0 0h120l26 1 13 2 6 3 5 6 2 6v25l-2 9-4 6-3 3-9 2-85 1h-118l-17-2-8-7-4-8-2-10v-9l3-12 5-8 9-5 4-1 19-1z"/>
<path transform="translate(303,351)" d="m0 0h120l28 1 13 2 6 4 4 5 2 8v24l-2 8-4 6-3 3-9 2-90 1h-107l-17-1-9-3-6-7-4-9-1-5v-12l3-11 6-8 5-4 6-2 15-1z"/>
<path transform="translate(756,1247)" d="m0 0h138l2 2v60l-2 2h-195l-13-2-7-6-6-11-1-4v-18l4-10 7-7 8-4 15-1z"/>
<path transform="translate(1023,1497)" d="m0 0 4 1 2 4-8-1-2-2z"/>
<path transform="translate(1018,1500)" d="m0 0"/>
<path transform="translate(565,1500)" d="m0 0"/>
<path transform="translate(1016,1498)" d="m0 0"/>
<path transform="translate(1017,1497)" d="m0 0"/>
</svg>
