<?xml version="1.0" encoding="UTF-8"?>
<svg version="1.1" viewBox="0 0 1600 1600" width="1280" height="1280" xmlns="http://www.w3.org/2000/svg">
<path transform="translate(253,95)" d="m0 0h135l83 1 20 1 10 3 12 7 10 9 8 9 6 10 4 10 1 5 1 24v1235l-1 35-2 15-7 14-12 14-9 7-9 5-17 2-33 1-218 1h-54l-29-1-15-3-11-6-10-9-7-8-8-14-4-14-1-12-1-28-1-485v-485l1-260 1-20 3-16 6-12 11-13 7-7 14-10 10-3 16-1zm-41 256-31 1-8 2-5 4-5 9-2 7v17l3 10 8 9 10 4 9 1h242l23-1 10-4 7-8 3-6 1-5v-17l-4-11-5-7-6-3-12-1-42-1zm34 736-61 1-12 2-7 7-4 10-1 4v15l2 9 6 8 9 6 10 2h248l19-1 11-3 7-8 3-10v-21l-4-13-4-4-6-2-13-1-49-1zm-55 128-15 2-6 4-5 6-3 8-1 4v13l3 12 7 8 5 4 6 2 8 1h244l23-1 8-3 5-5 3-4 3-10v-20l-4-12-5-6-5-2-13-1z" fill="#0243FD"/>
<path transform="translate(1218,95)" d="m0 0h154l64 1 16 1 11 4 12 8 9 8 10 13 6 12 2 7 1 17v1242l-1 39-2 13-6 11-12 14-7 7-10 6-10 2-14 1-36 1-237 1h-39l-22-1-12-3-11-7-12-11-8-10-6-12-2-11-1-37v-449l-1-626v-143l1-29 2-17 5-13 8-11 9-10 7-6 9-6 7-3 7-1 19-1zm-47 256-33 1-6 2-6 7-5 14v18l3 8 7 8 8 4 18 2h244l16-1 9-4 7-8 3-6 1-5v-17l-4-11-6-7-7-3-11-1-47-1zm25 736-52 1-11 2-5 5-5 8-2 7v18l3 9 3 4h2v2l10 6 11 2h251l15-1 10-4 5-5 3-4 2-5 1-6v-13l-3-12-5-8-4-3-3-1-11-1-41-1zm-45 128-15 2-7 4-6 10-2 7v16l3 10 7 8 5 4 6 2 9 1h252l14-1 8-3 8-9 3-7 1-6v-14l-3-10-6-9-5-3-5-1-17-1z" fill="#0243FD"/>
<path transform="translate(710,383)" d="m0 0h206l44 1 15 1 11 4 10 6 10 9 9 12 5 10 2 9 1 21v947l-1 40-2 16-7 14-12 14-12 9-6 3-17 2-28 1-232 1h-63l-17-1-11-3-10-6-12-11-10-12-5-10-2-12-1-41v-916l1-49 1-11 7-14 10-13 9-9 10-7 9-3 23-1zm-8 256-39 1-10 2-5 4-5 10-2 8v14l2 9 6 8 7 5 7 2 10 1h233l31-1 8-3 5-5 3-4 3-9 1-15-2-11-4-8-6-5-4-1-15-1-44-1zm-10 608-31 1-8 2-5 4-5 9-2 7v18l3 9 5 6 5 4 10 3 9 1h239l24-1 9-3 7-7 4-9 1-5v-14l-2-9-6-10-4-3-4-1-15-1-36-1z" fill="#0243FD"/>
</svg>
